<svg xmlns="http://www.w3.org/2000/svg" viewBox="0 0 64 64" width="64" height="64">
  <defs>
    <!-- Gradient for the curtain -->
    <linearGradient id="curtainGradient" x1="0%" y1="0%" x2="100%" y2="100%">
      <stop offset="0%" style="stop-color:#8B1538;stop-opacity:1" />
      <stop offset="50%" style="stop-color:#A91B47;stop-opacity:1" />
      <stop offset="100%" style="stop-color:#6B1029;stop-opacity:1" />
    </linearGradient>
    
    <!-- Shadow filter -->
    <filter id="dropshadow" x="-50%" y="-50%" width="200%" height="200%">
      <feDropShadow dx="1" dy="1" stdDeviation="1" flood-color="#000" flood-opacity="0.4"/>
    </filter>
  </defs>
  
  <!-- Background circle -->
  <circle cx="32" cy="32" r="30" fill="url(#curtainGradient)" filter="url(#dropshadow)"/>
  
  <!-- Theater masks -->
  <g transform="translate(16, 20)">
    <!-- Comedy mask -->
    <path d="M8 6 C8 3, 11 3, 14 6 C14 12, 11 15, 8 15 C5 15, 2 12, 2 6 C2 3, 5 3, 8 6 Z" 
          fill="#FFF" stroke="#8B1538" stroke-width="1" opacity="0.95"/>
    <!-- Eyes -->
    <circle cx="6" cy="9" r="1" fill="#8B1538"/>
    <circle cx="10" cy="9" r="1" fill="#8B1538"/>
    <!-- Smile -->
    <path d="M5 11 Q8 13, 11 11" stroke="#8B1538" stroke-width="1" fill="none"/>
    
    <!-- Tragedy mask -->
    <path d="M24 6 C24 3, 27 3, 30 6 C30 12, 27 15, 24 15 C21 15, 18 12, 18 6 C18 3, 21 3, 24 6 Z" 
          fill="#FFF" stroke="#8B1538" stroke-width="1" opacity="0.95"/>
    <!-- Eyes -->
    <circle cx="22" cy="9" r="1" fill="#8B1538"/>
    <circle cx="26" cy="9" r="1" fill="#8B1538"/>
    <!-- Frown -->
    <path d="M21 13 Q24 11, 27 13" stroke="#8B1538" stroke-width="1" fill="none"/>
  </g>
  
  <!-- Stage platform -->
  <rect x="12" y="50" width="40" height="4" fill="#D4A574" rx="2"/>
  
  <!-- Decorative star -->
  <path d="M32 8 L33 11 L36 11 L34 13 L35 16 L32 14 L29 16 L30 13 L28 11 L31 11 Z" fill="#D4A574" opacity="0.7"/>
</svg>
